<svg width="45" height="45" viewBox="0 0 45 45" fill="none" xmlns="http://www.w3.org/2000/svg">
<path fill-rule="evenodd" clip-rule="evenodd" d="M13.971 0C10.2138 0 7.3798 3.37771 8.06952 7.03379L9.70162 15.6849C4.17282 18.0995 0 22.2687 0 27.5V30.6818C0 35.0067 2.89037 38.6277 6.9311 41.0721C11.0033 43.5355 16.5124 45 22.5 45C28.4876 45 33.9967 43.5355 38.0689 41.0721C42.1096 38.6277 45 35.0067 45 30.6818V27.5C45 22.2409 40.7839 18.0556 35.208 15.6458L36.8327 7.03379C37.5224 3.37772 34.6884 0 30.9312 0C27.6157 0 24.9277 2.66071 24.9277 5.94285V13.2628C24.1299 13.2093 23.3199 13.1818 22.5 13.1818C21.6466 13.1818 20.8039 13.2115 19.9745 13.2695V5.94285C19.9745 2.66071 17.2867 0 13.971 0ZM16.7603 26.591C16.7603 28.4738 15.7323 30 14.4643 30C13.1963 30 12.1684 28.4738 12.1684 26.591C12.1684 24.7082 13.1963 23.1818 14.4643 23.1818C15.7323 23.1818 16.7603 24.7082 16.7603 26.591ZM32.6022 26.591C32.6022 28.4738 31.5742 30 30.3063 30C29.0383 30 28.0103 28.4738 28.0103 26.591C28.0103 24.7082 29.0383 23.1818 30.3063 23.1818C31.5742 23.1818 32.6022 24.7082 32.6022 26.591Z" fill="url(#paint0_linear_10_658)"/>
<defs>
<linearGradient id="paint0_linear_10_658" x1="22.5" y1="0" x2="22.5" y2="45" gradientUnits="userSpaceOnUse">
<stop stop-color="#7645D9"/>
<stop offset="1" stop-color="#5121B1"/>
</linearGradient>
</defs>
</svg>
