<svg width="22" height="22" viewBox="0 0 22 22" fill="none" xmlns="http://www.w3.org/2000/svg">
<path d="M11 22C17.0751 22 22 17.0751 22 11C22 4.92487 17.0751 0 11 0C4.92487 0 0 4.92487 0 11C0 17.0751 4.92487 22 11 22Z" fill="url(#paint0_linear_8_223)"/>
<path fill-rule="evenodd" clip-rule="evenodd" d="M6.4373 6.00957C6.21923 4.82986 7.11526 3.73999 8.30322 3.73999C9.35157 3.73999 10.2014 4.59852 10.2014 5.65757V8.02163C10.4636 8.00293 10.7301 7.99331 10.9999 7.99331C11.2592 7.99331 11.5153 8.00216 11.7675 8.01943V5.65757C11.7675 4.59852 12.6174 3.73999 13.6658 3.73999C14.8537 3.73999 15.7497 4.82986 15.5317 6.00957L15.018 8.7884C16.7809 9.56592 18.114 10.9164 18.114 12.6133V13.64C18.114 15.0355 17.2001 16.2039 15.9225 16.9926C14.635 17.7875 12.8931 18.26 10.9999 18.26C9.10677 18.26 7.36491 17.7875 6.07735 16.9926C4.79976 16.2039 3.88586 15.0355 3.88586 13.64V12.6133C3.88586 10.9254 5.20521 9.5801 6.95331 8.80099L6.4373 6.00957ZM14.3597 9.15347L14.9608 5.90185C15.1122 5.08308 14.4902 4.32666 13.6658 4.32666C12.9381 4.32666 12.3483 4.9225 12.3483 5.65757V8.66599C12.1576 8.64128 11.9639 8.62173 11.7675 8.60755C11.5158 8.58933 11.2596 8.58001 10.9999 8.58001C10.7296 8.58001 10.4631 8.59015 10.2014 8.60983C10.005 8.62461 9.81129 8.64476 9.62068 8.67002V5.65757C9.62068 4.9225 9.03085 4.32666 8.30322 4.32666C7.47873 4.32666 6.8568 5.08308 7.00818 5.90185L7.61125 9.16425C5.72591 9.87173 4.46662 11.1517 4.46662 12.6133V13.64C4.46662 15.8676 7.39168 17.6733 10.9999 17.6733C14.6082 17.6733 17.5333 15.8676 17.5333 13.64V12.6133C17.5333 11.1443 16.2611 9.85867 14.3597 9.15347Z" fill="#633001"/>
<path d="M17.5332 13.64C17.5332 15.8675 14.6081 17.6733 10.9999 17.6733C7.39161 17.6733 4.46655 15.8675 4.46655 13.64V12.6133H17.5332V13.64Z" fill="#FEDC90"/>
<path fill-rule="evenodd" clip-rule="evenodd" d="M7.00811 5.90185C6.85673 5.08308 7.47866 4.32666 8.30315 4.32666C9.03078 4.32666 9.62061 4.92251 9.62061 5.65757V8.67003C10.0653 8.61103 10.5267 8.58001 10.9999 8.58001C11.4621 8.58001 11.9131 8.60961 12.3482 8.66599V5.65757C12.3482 4.92251 12.9381 4.32666 13.6657 4.32666C14.4902 4.32666 15.1121 5.08308 14.9607 5.90185L14.3596 9.15347C16.261 9.85867 17.5332 11.1443 17.5332 12.6133C17.5332 14.8409 14.6081 16.6467 10.9999 16.6467C7.39161 16.6467 4.46655 14.8409 4.46655 12.6133C4.46655 11.1517 5.72584 9.87173 7.61118 9.16425L7.00811 5.90185Z" fill="#D1884F"/>
<path d="M9.1851 12.32C9.1851 12.9275 8.86013 13.42 8.45919 13.42C8.05829 13.42 7.73328 12.9275 7.73328 12.32C7.73328 11.7124 8.05829 11.22 8.45919 11.22C8.86013 11.22 9.1851 11.7124 9.1851 12.32Z" fill="#633001"/>
<path d="M14.1939 12.32C14.1939 12.9275 13.8689 13.42 13.468 13.42C13.0671 13.42 12.7421 12.9275 12.7421 12.32C12.7421 11.7124 13.0671 11.22 13.468 11.22C13.8689 11.22 14.1939 11.7124 14.1939 12.32Z" fill="#633001"/>
<defs>
<linearGradient id="paint0_linear_8_223" x1="11" y1="0" x2="11" y2="22" gradientUnits="userSpaceOnUse">
<stop stop-color="#54DADE"/>
<stop offset="0.762157" stop-color="#24C7D6"/>
</linearGradient>
</defs>
</svg>
