<svg width="25" height="28" viewBox="0 0 25 28" fill="none" xmlns="http://www.w3.org/2000/svg">
<path d="M10.3951 1.95312C10.3951 0.874441 9.5225 0 8.44608 0C7.36967 0 6.49707 0.874441 6.49707 1.95312V10.8083C6.49707 11.887 7.36967 12.7614 8.44608 12.7614C9.5225 12.7614 10.3951 11.887 10.3951 10.8083V1.95312Z" fill="#D1884F"/>
<path d="M18.191 1.95312C18.191 0.874441 17.3184 0 16.242 0C15.1656 0 14.293 0.874441 14.293 1.95312V10.8083C14.293 11.887 15.1656 12.7614 16.242 12.7614C17.3184 12.7614 18.191 11.887 18.191 10.8083V1.95312Z" fill="#D1884F"/>
<path d="M6.24997 9.58508C9.70173 6.19495 15.2982 6.19495 18.75 9.58508C22.2017 12.9752 22.2017 18.4718 18.75 21.8619L12.9807 27.5281C12.7152 27.7889 12.2847 27.7889 12.0192 27.5281L6.24997 21.8619C2.79819 18.4718 2.79819 12.9752 6.24997 9.58508Z" fill="#D1884F"/>
<path d="M9.09524 16.5901C9.81285 16.5901 10.3946 15.7331 10.3946 14.6759C10.3946 13.6187 9.81285 12.7617 9.09524 12.7617C8.37764 12.7617 7.7959 13.6187 7.7959 14.6759C7.7959 15.7331 8.37764 16.5901 9.09524 16.5901Z" fill="white"/>
<path d="M15.5923 16.5901C16.3099 16.5901 16.8917 15.7331 16.8917 14.6759C16.8917 13.6187 16.3099 12.7617 15.5923 12.7617C14.8747 12.7617 14.293 13.6187 14.293 14.6759C14.293 15.7331 14.8747 16.5901 15.5923 16.5901Z" fill="white"/>
</svg>
