<svg width="20" height="16" viewBox="0 0 20 16" fill="none" xmlns="http://www.w3.org/2000/svg">
<path d="M16.93 1.64399C15.6337 1.04839 14.2656 0.623507 12.86 0.379986C12.8471 0.377518 12.8338 0.379189 12.822 0.384758C12.8101 0.390327 12.8003 0.399509 12.794 0.410986C12.619 0.723986 12.424 1.13099 12.288 1.45199C10.7724 1.22177 9.23065 1.22177 7.71501 1.45199C7.56258 1.09612 7.39065 0.748932 7.20001 0.411986C7.19354 0.400893 7.18388 0.392005 7.17229 0.386476C7.16069 0.380948 7.14771 0.379035 7.13501 0.380986C5.72931 0.623703 4.36117 1.04827 3.06501 1.64399C3.05346 1.64847 3.04365 1.65653 3.03701 1.66699C0.444012 5.53999 -0.265988 9.31899 0.0830117 13.05C0.0839833 13.0592 0.0867848 13.068 0.0912507 13.0761C0.0957165 13.0842 0.101756 13.0913 0.109012 13.097C1.61863 14.2155 3.30733 15.0693 5.10301 15.622C5.11563 15.6258 5.12912 15.6257 5.14165 15.6216C5.15418 15.6175 5.16514 15.6096 5.17301 15.599C5.55801 15.073 5.90101 14.519 6.19501 13.937C6.19909 13.929 6.20141 13.9202 6.20183 13.9113C6.20225 13.9023 6.20075 13.8934 6.19744 13.8851C6.19413 13.8767 6.18907 13.8692 6.18262 13.863C6.17617 13.8568 6.16846 13.852 6.16001 13.849C5.62117 13.6426 5.09953 13.3938 4.60001 13.105C4.59093 13.0997 4.58329 13.0923 4.57776 13.0834C4.57222 13.0745 4.56897 13.0643 4.56828 13.0539C4.56759 13.0434 4.56948 13.0329 4.57379 13.0233C4.57811 13.0138 4.58471 13.0054 4.59301 12.999C4.69801 12.92 4.80301 12.839 4.90301 12.756C4.91192 12.7486 4.92273 12.7438 4.93422 12.7422C4.94571 12.7406 4.95742 12.7423 4.96801 12.747C8.24101 14.242 11.785 14.242 15.019 12.747C15.0296 12.7419 15.0415 12.74 15.0532 12.7414C15.0649 12.7428 15.0759 12.7475 15.085 12.755C15.185 12.838 15.289 12.92 15.395 12.999C15.4034 13.0052 15.4101 13.0135 15.4146 13.0229C15.4191 13.0324 15.4212 13.0428 15.4207 13.0533C15.4202 13.0638 15.4171 13.074 15.4118 13.083C15.4064 13.092 15.399 13.0995 15.39 13.105C14.891 13.396 14.373 13.642 13.829 13.848C13.8206 13.8512 13.813 13.8562 13.8067 13.8625C13.8003 13.8689 13.7954 13.8765 13.7922 13.8849C13.7889 13.8933 13.7875 13.9023 13.788 13.9112C13.7885 13.9202 13.7909 13.929 13.795 13.937C14.095 14.519 14.438 15.072 14.815 15.597C14.8225 15.608 14.8333 15.6164 14.8459 15.6209C14.8585 15.6254 14.8722 15.6258 14.885 15.622C16.6842 15.0712 18.3762 14.2173 19.888 13.097C19.8954 13.0916 19.9015 13.0847 19.906 13.0768C19.9105 13.0689 19.9132 13.0601 19.914 13.051C20.331 8.73699 19.215 4.98999 16.957 1.66699C16.9514 1.65646 16.9421 1.6483 16.931 1.64399H16.93ZM6.68401 10.778C5.69901 10.778 4.88701 9.87299 4.88701 8.76199C4.88701 7.65199 5.68301 6.74699 6.68401 6.74699C7.69401 6.74699 8.49801 7.65899 8.48201 8.76199C8.48201 9.87299 7.68601 10.778 6.68401 10.778ZM13.33 10.778C12.344 10.778 11.533 9.87299 11.533 8.76199C11.533 7.65199 12.329 6.74699 13.33 6.74699C14.339 6.74699 15.143 7.65899 15.127 8.76199C15.127 9.87299 14.339 10.778 13.33 10.778Z" fill="#B6ADCF"/>
</svg>
