<svg width="24" height="24" viewBox="0 0 24 24" fill="none" xmlns="http://www.w3.org/2000/svg">
<path d="M12 22.5C17.799 22.5 22.5 17.799 22.5 12C22.5 6.20101 17.799 1.5 12 1.5C6.20101 1.5 1.5 6.20101 1.5 12C1.5 17.799 6.20101 22.5 12 22.5Z" stroke="#40D2DB" stroke-width="2" stroke-linecap="round" stroke-linejoin="round"/>
<path d="M2.2002 8.5H21.8002M2.2002 15.5H21.8002M11.4169 1.5C9.45143 4.64955 8.40943 8.28751 8.40943 12C8.40943 15.7125 9.45143 19.3505 11.4169 22.5M12.5835 1.5C14.549 4.64955 15.591 8.28751 15.591 12C15.591 15.7125 14.549 19.3505 12.5835 22.5" stroke="#40D2DB" stroke-width="2" stroke-linecap="round" stroke-linejoin="round"/>
</svg>
