<svg width="20" height="20" viewBox="0 0 20 20" fill="none" xmlns="http://www.w3.org/2000/svg">
<path fill-rule="evenodd" clip-rule="evenodd" d="M9.97 0C4.464 0 0 4.465 0 9.97C0 14.373 2.875 18.104 6.789 19.45C7.279 19.51 7.462 19.205 7.462 18.96V17.248C4.709 17.859 4.098 15.902 4.098 15.902C3.67 14.74 2.997 14.434 2.997 14.434C2.08 13.823 3.058 13.823 3.058 13.823C4.037 13.883 4.588 14.863 4.588 14.863C5.505 16.391 6.911 15.963 7.462 15.719C7.49846 15.2118 7.71519 14.7343 8.073 14.373C5.872 14.128 3.547 13.273 3.547 9.419C3.547 8.318 3.914 7.462 4.587 6.728C4.526 6.544 4.159 5.505 4.709 4.159C4.709 4.159 5.566 3.914 7.462 5.199C8.257 4.954 9.113 4.893 9.969 4.893C10.826 4.893 11.682 5.015 12.477 5.199C14.373 3.914 15.229 4.159 15.229 4.159C15.779 5.505 15.413 6.544 15.352 6.789C16.025 7.52311 16.3964 8.48407 16.392 9.48C16.392 13.333 14.067 14.128 11.865 14.373C12.232 14.679 12.538 15.291 12.538 16.208V18.96C12.538 19.205 12.722 19.51 13.211 19.45C15.1936 18.781 16.9157 17.5058 18.134 15.8046C19.3522 14.1034 20.005 12.0624 20 9.97C19.939 4.464 15.474 0 9.97 0Z" fill="#B6ADCF"/>
</svg>
