<svg width="18" height="18" viewBox="0 0 18 18" fill="none" xmlns="http://www.w3.org/2000/svg">
<path d="M9 1.625C11.407 1.625 11.685 1.635 12.641 1.677C13.515 1.717 13.999 1.862 14.307 1.985C14.729 2.15 15.027 2.345 15.347 2.654C15.665 2.973 15.861 3.271 16.015 3.693C16.138 4.011 16.282 4.485 16.323 5.359C16.365 6.305 16.375 6.593 16.375 9C16.375 11.407 16.365 11.685 16.323 12.641C16.283 13.515 16.138 13.999 16.015 14.307C15.85 14.729 15.655 15.027 15.346 15.347C15.0569 15.6481 14.701 15.8769 14.307 16.015C13.989 16.138 13.515 16.282 12.641 16.323C11.695 16.365 11.407 16.375 9 16.375C6.593 16.375 6.315 16.365 5.359 16.323C4.485 16.283 4.001 16.138 3.693 16.015C3.30242 15.8691 2.94775 15.6409 2.653 15.346C2.35186 15.0569 2.12302 14.701 1.985 14.307C1.862 13.989 1.718 13.515 1.677 12.641C1.635 11.695 1.625 11.407 1.625 9C1.625 6.593 1.635 6.315 1.677 5.359C1.717 4.485 1.862 4.001 1.985 3.693C2.15 3.271 2.345 2.973 2.654 2.653C2.94307 2.35183 3.29902 2.12299 3.693 1.985C4.011 1.862 4.485 1.718 5.359 1.677C6.315 1.635 6.593 1.625 9 1.625V1.625ZM9 0C6.552 0 6.254 0.01 5.287 0.051C4.33 0.103 3.672 0.247 3.107 0.473C2.50456 0.696159 1.95961 1.05115 1.512 1.512C1.05127 1.95932 0.696291 2.50391 0.473 3.106C0.247 3.672 0.103 4.33 0.051 5.286C0.011 6.255 0 6.553 0 9C0 11.447 0.01 11.746 0.051 12.713C0.093 13.67 0.247 14.328 0.473 14.893C0.699 15.49 1.008 15.984 1.512 16.488C2.016 16.992 2.51 17.301 3.106 17.527C3.682 17.753 4.33 17.897 5.286 17.949C6.243 17.989 6.552 18 9 18C11.448 18 11.746 17.99 12.713 17.949C13.67 17.907 14.328 17.753 14.893 17.527C15.4954 17.3038 16.0404 16.9489 16.488 16.488C16.9487 16.0407 17.3037 15.4961 17.527 14.894C17.753 14.318 17.897 13.67 17.949 12.714C17.989 11.757 18 11.448 18 9C18 6.552 17.99 6.254 17.949 5.287C17.907 4.33 17.753 3.672 17.527 3.107C17.3038 2.50457 16.9488 1.95963 16.488 1.512C16.0407 1.05127 15.4961 0.696291 14.894 0.473C14.318 0.247 13.67 0.103 12.714 0.051C11.745 0.011 11.447 0 9 0Z" fill="#B6ADCF"/>
<path d="M9.00002 4.382C7.77525 4.382 6.60064 4.86854 5.7346 5.73459C4.86856 6.60063 4.38202 7.77523 4.38202 9C4.38202 10.2248 4.86856 11.3994 5.7346 12.2654C6.60064 13.1315 7.77525 13.618 9.00002 13.618C10.2248 13.618 11.3994 13.1315 12.2654 12.2654C13.1315 11.3994 13.618 10.2248 13.618 9C13.618 7.77523 13.1315 6.60063 12.2654 5.73459C11.3994 4.86854 10.2248 4.382 9.00002 4.382ZM9.00002 12.003C8.2039 12.0019 7.44069 11.6852 6.87775 11.1223C6.3148 10.5593 5.99808 9.79612 5.99702 9C5.99808 8.20388 6.3148 7.44067 6.87775 6.87773C7.44069 6.31479 8.2039 5.99806 9.00002 5.997C9.79614 5.99806 10.5593 6.31479 11.1223 6.87773C11.6852 7.44067 12.002 8.20388 12.003 9C12.002 9.79612 11.6852 10.5593 11.1223 11.1223C10.5593 11.6852 9.79614 12.0019 9.00002 12.003ZM13.803 5.277C14.0895 5.277 14.3642 5.16322 14.5667 4.96068C14.7692 4.75814 14.883 4.48344 14.883 4.197C14.883 3.91057 14.7692 3.63587 14.5667 3.43333C14.3642 3.23079 14.0895 3.117 13.803 3.117C13.5166 3.117 13.2419 3.23079 13.0393 3.43333C12.8368 3.63587 12.723 3.91057 12.723 4.197C12.723 4.48344 12.8368 4.75814 13.0393 4.96068C13.2419 5.16322 13.5166 5.277 13.803 5.277Z" fill="#B6ADCF"/>
</svg>
