<svg width="20" height="12" viewBox="0 0 20 12" fill="none" xmlns="http://www.w3.org/2000/svg">
<path d="M5.64 0.320007C8.756 0.320007 11.281 2.86401 11.281 6.00001C11.281 9.13701 8.756 11.68 5.641 11.68C2.526 11.68 0 9.13601 0 6.00001C0 2.86401 2.525 0.320007 5.64 0.320007ZM14.648 0.653007C16.206 0.653007 17.468 3.04701 17.468 6.00001H17.469C17.469 8.95301 16.206 11.347 14.649 11.347C13.091 11.347 11.829 8.95201 11.829 6.00001C11.829 3.04801 13.091 0.653007 14.649 0.653007H14.648ZM19.008 1.21001C19.556 1.21001 20 3.35501 20 6.00001C20 8.64501 19.556 10.79 19.008 10.79C18.46 10.79 18.016 8.64501 18.016 6.00001C18.016 3.35501 18.46 1.21001 19.008 1.21001Z" fill="#B6ADCF"/>
</svg>
