<svg width="160" height="26" viewBox="0 0 160 26" fill="none" xmlns="http://www.w3.org/2000/svg">
<path d="M30.8524 19.757C30.4803 19.757 30.2173 19.68 30.0633 19.526C29.9221 19.3721 29.8516 19.1283 29.8516 18.7947V7.65078C29.8516 7.31717 29.9285 7.07338 30.0825 6.9194C30.2365 6.7526 30.4931 6.66919 30.8524 6.66919H35.5679C37.3642 6.66919 38.6858 7.04771 39.5327 7.80475C40.3796 8.56179 40.803 9.69094 40.803 11.1922C40.803 12.6806 40.3796 13.8033 39.5327 14.5604C38.6987 15.3046 37.3771 15.6767 35.5679 15.6767H33.7394V18.7947C33.7394 19.1283 33.6624 19.3721 33.5085 19.526C33.3545 19.68 33.0914 19.757 32.7193 19.757H30.8524ZM35.2599 12.8859C35.786 12.8859 36.1902 12.7447 36.4725 12.4625C36.7676 12.1802 36.9151 11.7567 36.9151 11.1922C36.9151 10.6148 36.7676 10.1849 36.4725 9.90265C36.1902 9.62037 35.786 9.47923 35.2599 9.47923H33.7394V12.8859H35.2599Z" fill="white"/>
<path d="M45.3484 20.0456C44.1423 20.0456 43.1735 19.6607 42.4421 18.8908C41.7236 18.1081 41.3643 17.011 41.3643 15.5996C41.3643 14.5218 41.6081 13.5787 42.0957 12.7703C42.5961 11.9619 43.2954 11.3396 44.1936 10.9034C45.1046 10.4543 46.1503 10.2297 47.3308 10.2297C48.306 10.2297 49.1657 10.3388 49.9099 10.5569C50.6669 10.7622 51.3598 11.0638 51.9885 11.4615V19.1602C51.9885 19.404 51.9436 19.5644 51.8538 19.6414C51.764 19.7184 51.5844 19.7569 51.3149 19.7569H49.3517C49.2106 19.7569 49.1015 19.7376 49.0245 19.6992C48.9475 19.6478 48.8834 19.5708 48.8321 19.4682L48.5819 18.8908C48.2097 19.2886 47.7607 19.5773 47.2346 19.7569C46.7213 19.9494 46.0926 20.0456 45.3484 20.0456ZM46.7919 17.428C47.2923 17.428 47.6837 17.3061 47.966 17.0623C48.2482 16.8186 48.3894 16.4721 48.3894 16.023V13.0205C48.1456 12.905 47.8376 12.8473 47.4655 12.8473C46.7855 12.8473 46.2402 13.0847 45.8296 13.5594C45.4318 14.0342 45.2329 14.7014 45.2329 15.5611C45.2329 16.8057 45.7526 17.428 46.7919 17.428Z" fill="white"/>
<path d="M54.6671 19.7569C54.295 19.7569 54.032 19.6799 53.878 19.5259C53.724 19.372 53.647 19.1282 53.647 18.7946V11.1151C53.647 10.8841 53.6855 10.7301 53.7625 10.6532C53.8523 10.5633 54.0319 10.5184 54.3014 10.5184H56.2838C56.4378 10.5184 56.5533 10.5441 56.6303 10.5954C56.7201 10.6339 56.7714 10.7109 56.7842 10.8264L56.8805 11.4038C57.2398 11.0445 57.7081 10.7622 58.2855 10.5569C58.8757 10.3388 59.5301 10.2297 60.2487 10.2297C61.288 10.2297 62.1284 10.5248 62.77 11.1151C63.4116 11.6925 63.7323 12.5522 63.7323 13.6942V18.7946C63.7323 19.1282 63.6553 19.372 63.5014 19.5259C63.3602 19.6799 63.1036 19.7569 62.7315 19.7569H60.8646C60.4925 19.7569 60.223 19.6799 60.0562 19.5259C59.9022 19.372 59.8252 19.1282 59.8252 18.7946V13.9444C59.8252 13.5594 59.7418 13.2836 59.575 13.1167C59.4082 12.9499 59.1452 12.8665 58.7859 12.8665C58.401 12.8665 58.093 12.9692 57.8621 13.1745C57.6439 13.3798 57.5349 13.6621 57.5349 14.0213V18.7946C57.5349 19.1282 57.4579 19.372 57.3039 19.5259C57.1628 19.6799 56.9061 19.7569 56.534 19.7569H54.6671Z" fill="white"/>
<path d="M70.5354 20.0456C68.739 20.0456 67.3532 19.6286 66.3781 18.7946C65.4029 17.9605 64.9153 16.748 64.9153 15.1569C64.9153 14.1817 65.1399 13.322 65.5889 12.5778C66.038 11.8336 66.686 11.2562 67.5329 10.8456C68.3926 10.435 69.4062 10.2297 70.5739 10.2297C71.4592 10.2297 72.2034 10.3131 72.8065 10.4799C73.4224 10.6467 73.9677 10.9034 74.4425 11.2498C74.5836 11.3396 74.6542 11.4551 74.6542 11.5963C74.6542 11.6989 74.6029 11.8336 74.5002 12.0004L73.7111 13.367C73.6213 13.5466 73.5122 13.6364 73.3839 13.6364C73.3069 13.6364 73.185 13.5851 73.0182 13.4824C72.6718 13.2643 72.3446 13.1039 72.0366 13.0013C71.7415 12.8986 71.3694 12.8473 70.9203 12.8473C70.2787 12.8473 69.7591 13.0526 69.3613 13.4632C68.9764 13.8738 68.7839 14.4384 68.7839 15.1569C68.7839 15.8883 68.9828 16.4529 69.3806 16.8506C69.7783 17.2356 70.3237 17.428 71.0165 17.428C71.4271 17.428 71.7992 17.3703 72.1329 17.2548C72.4665 17.1393 72.8065 16.9789 73.1529 16.7736C73.3326 16.671 73.4609 16.6197 73.5379 16.6197C73.6534 16.6197 73.756 16.7095 73.8458 16.8891L74.7119 18.3711C74.7761 18.4994 74.8082 18.6021 74.8082 18.6791C74.8082 18.7946 74.7312 18.9036 74.5772 19.0063C74.0383 19.3527 73.4481 19.6093 72.8065 19.7761C72.1778 19.9558 71.4207 20.0456 70.5354 20.0456Z" fill="white"/>
<path d="M79.6882 20.0456C78.4821 20.0456 77.5133 19.6607 76.782 18.8908C76.0634 18.1081 75.7041 17.011 75.7041 15.5996C75.7041 14.5218 75.9479 13.5787 76.4355 12.7703C76.9359 11.9619 77.6352 11.3396 78.5334 10.9034C79.4444 10.4543 80.4902 10.2297 81.6706 10.2297C82.6458 10.2297 83.5055 10.3388 84.2497 10.5569C85.0068 10.7622 85.6996 11.0638 86.3284 11.4615V19.1602C86.3284 19.404 86.2835 19.5644 86.1936 19.6414C86.1038 19.7184 85.9242 19.7569 85.6547 19.7569H83.6916C83.5504 19.7569 83.4413 19.7376 83.3644 19.6992C83.2874 19.6478 83.2232 19.5708 83.1719 19.4682L82.9217 18.8908C82.5496 19.2886 82.1005 19.5773 81.5744 19.7569C81.0612 19.9494 80.4324 20.0456 79.6882 20.0456ZM81.1317 17.428C81.6321 17.428 82.0235 17.3061 82.3058 17.0623C82.5881 16.8186 82.7292 16.4721 82.7292 16.023V13.0205C82.4854 12.905 82.1775 12.8473 81.8054 12.8473C81.1253 12.8473 80.58 13.0847 80.1694 13.5594C79.7716 14.0342 79.5727 14.7014 79.5727 15.5611C79.5727 16.8057 80.0924 17.428 81.1317 17.428Z" fill="white"/>
<path d="M98.4184 19.0256C98.5082 19.1283 98.5531 19.2437 98.5531 19.3721C98.5531 19.4875 98.5146 19.5838 98.4377 19.6608C98.3607 19.7249 98.258 19.757 98.1297 19.757H95.1465C94.9668 19.757 94.8321 19.7442 94.7423 19.7185C94.6653 19.68 94.5819 19.6094 94.4921 19.5068L91.8745 15.9461V18.7947C91.8745 19.1283 91.7975 19.3721 91.6435 19.526C91.4896 19.68 91.2265 19.757 90.8544 19.757H88.9875C88.6154 19.757 88.3523 19.68 88.1984 19.526C88.0572 19.3721 87.9866 19.1283 87.9866 18.7947V7.65078C87.9866 7.31717 88.0636 7.07338 88.2176 6.9194C88.3716 6.7526 88.6282 6.66919 88.9875 6.66919H90.8544C91.2265 6.66919 91.4896 6.7526 91.6435 6.9194C91.7975 7.07338 91.8745 7.31717 91.8745 7.65078V14.0984L94.4151 10.788C94.4921 10.6853 94.5755 10.6148 94.6653 10.5763C94.7551 10.5378 94.8898 10.5185 95.0695 10.5185H98.0527C98.181 10.5185 98.2773 10.557 98.3414 10.634C98.4184 10.6982 98.4569 10.788 98.4569 10.9035C98.4569 11.0318 98.412 11.1473 98.3222 11.2499L95.031 15.0223L98.4184 19.0256Z" fill="white"/>
<path d="M104.668 20.0456C103.59 20.0456 102.628 19.866 101.781 19.5067C100.947 19.1474 100.286 18.6085 99.7985 17.89C99.3109 17.1714 99.0671 16.2925 99.0671 15.2531C99.0671 13.6236 99.529 12.379 100.453 11.5193C101.377 10.6596 102.705 10.2297 104.437 10.2297C106.131 10.2297 107.414 10.6532 108.286 11.5C109.172 12.334 109.614 13.4953 109.614 14.9837C109.614 15.6252 109.332 15.946 108.767 15.946H102.724C102.724 16.4978 102.929 16.9212 103.34 17.2163C103.763 17.5114 104.398 17.659 105.245 17.659C105.771 17.659 106.208 17.6141 106.554 17.5243C106.913 17.4216 107.273 17.2741 107.632 17.0816C107.786 17.0174 107.889 16.9854 107.94 16.9854C108.055 16.9854 108.152 17.0623 108.229 17.2163L108.883 18.4481C108.947 18.5764 108.979 18.6727 108.979 18.7368C108.979 18.8523 108.902 18.9614 108.748 19.064C108.222 19.4105 107.626 19.6607 106.958 19.8146C106.291 19.9686 105.528 20.0456 104.668 20.0456ZM106.15 14.0406C106.15 13.553 106.009 13.1745 105.726 12.905C105.444 12.6356 105.021 12.5009 104.456 12.5009C103.892 12.5009 103.462 12.642 103.167 12.9243C102.872 13.1937 102.724 13.5658 102.724 14.0406H106.15Z" fill="white"/>
<path d="M116.211 20.0456C115.133 20.0456 114.113 19.9365 113.151 19.7184C112.189 19.4874 111.412 19.1667 110.822 18.7561C110.604 18.6149 110.495 18.4674 110.495 18.3134C110.495 18.2107 110.533 18.1017 110.61 17.9862L111.553 16.4849C111.656 16.331 111.759 16.254 111.861 16.254C111.926 16.254 112.035 16.2989 112.189 16.3887C112.663 16.6582 113.202 16.8763 113.805 17.0431C114.408 17.2099 115.005 17.2933 115.595 17.2933C116.198 17.2933 116.641 17.2035 116.923 17.0238C117.218 16.8442 117.366 16.5555 117.366 16.1577C117.366 15.7728 117.206 15.4713 116.885 15.2531C116.577 15.035 115.993 14.7591 115.133 14.4255C113.837 13.9379 112.824 13.3926 112.092 12.7896C111.374 12.1737 111.015 11.3396 111.015 10.2875C111.015 9.01718 111.47 8.04843 112.381 7.38121C113.292 6.71398 114.505 6.38037 116.019 6.38037C117.071 6.38037 117.969 6.47661 118.713 6.66907C119.47 6.84871 120.112 7.131 120.638 7.51593C120.856 7.68274 120.965 7.83671 120.965 7.97786C120.965 8.06767 120.927 8.17032 120.85 8.2858L119.907 9.78705C119.791 9.94103 119.688 10.018 119.599 10.018C119.534 10.018 119.425 9.97311 119.271 9.88329C118.527 9.3957 117.642 9.15191 116.615 9.15191C116.064 9.15191 115.64 9.24173 115.345 9.42137C115.05 9.601 114.902 9.89612 114.902 10.3067C114.902 10.589 114.979 10.82 115.133 10.9996C115.287 11.1792 115.493 11.3396 115.749 11.4808C116.019 11.6091 116.429 11.7759 116.981 11.9812L117.347 12.1159C118.296 12.488 119.04 12.8473 119.579 13.1937C120.131 13.5273 120.548 13.9444 120.83 14.4448C121.113 14.9324 121.254 15.5483 121.254 16.2925C121.254 17.4344 120.824 18.3455 119.964 19.0255C119.117 19.7056 117.866 20.0456 116.211 20.0456Z" fill="white"/>
<path d="M125.343 19.7568C125.151 19.7568 125.003 19.7247 124.9 19.6606C124.798 19.5964 124.721 19.4681 124.67 19.2756L122.187 10.961C122.161 10.884 122.148 10.8263 122.148 10.7878C122.148 10.6082 122.277 10.5183 122.533 10.5183H125.074C125.241 10.5183 125.362 10.5504 125.439 10.6146C125.516 10.6659 125.568 10.7557 125.593 10.884L126.633 15.253L127.941 11.7309C128.006 11.5769 128.07 11.4743 128.134 11.4229C128.211 11.3588 128.339 11.3267 128.519 11.3267H129.731C129.911 11.3267 130.033 11.3588 130.097 11.4229C130.174 11.4743 130.245 11.5769 130.309 11.7309L131.598 15.253L132.657 10.884C132.695 10.7557 132.747 10.6659 132.811 10.6146C132.875 10.5504 132.991 10.5183 133.157 10.5183H135.717C135.974 10.5183 136.102 10.6082 136.102 10.7878C136.102 10.8263 136.089 10.884 136.064 10.961L133.562 19.2756C133.51 19.4681 133.433 19.5964 133.331 19.6606C133.241 19.7247 133.1 19.7568 132.907 19.7568H131.021C130.841 19.7568 130.707 19.7247 130.617 19.6606C130.527 19.5836 130.45 19.4553 130.386 19.2756L129.116 15.792L127.845 19.2756C127.794 19.4553 127.717 19.5836 127.614 19.6606C127.524 19.7247 127.39 19.7568 127.21 19.7568H125.343Z" fill="white"/>
<path d="M140.981 20.0456C139.775 20.0456 138.806 19.6607 138.075 18.8908C137.356 18.1081 136.997 17.011 136.997 15.5996C136.997 14.5218 137.241 13.5787 137.728 12.7703C138.229 11.9619 138.928 11.3396 139.826 10.9034C140.737 10.4543 141.783 10.2297 142.963 10.2297C143.938 10.2297 144.798 10.3388 145.542 10.5569C146.299 10.7622 146.992 11.0638 147.621 11.4615V19.1602C147.621 19.404 147.576 19.5644 147.486 19.6414C147.396 19.7184 147.217 19.7569 146.947 19.7569H144.984C144.843 19.7569 144.734 19.7376 144.657 19.6992C144.58 19.6478 144.516 19.5708 144.465 19.4682L144.214 18.8908C143.842 19.2886 143.393 19.5773 142.867 19.7569C142.354 19.9494 141.725 20.0456 140.981 20.0456ZM142.424 17.428C142.925 17.428 143.316 17.3061 143.598 17.0623C143.881 16.8186 144.022 16.4721 144.022 16.023V13.0205C143.778 12.905 143.47 12.8473 143.098 12.8473C142.418 12.8473 141.873 13.0847 141.462 13.5594C141.064 14.0342 140.865 14.7014 140.865 15.5611C140.865 16.8057 141.385 17.428 142.424 17.428Z" fill="white"/>
<path d="M150.28 23.6447C149.908 23.6447 149.645 23.5678 149.491 23.4138C149.35 23.2598 149.279 23.016 149.279 22.6824V11.654C149.857 11.2434 150.582 10.9034 151.454 10.6339C152.327 10.3645 153.238 10.2297 154.187 10.2297C158.062 10.2297 160 11.8721 160 15.1569C160 16.6453 159.589 17.8322 158.768 18.7176C157.947 19.6029 156.786 20.0456 155.284 20.0456C154.861 20.0456 154.45 19.9943 154.053 19.8916C153.668 19.789 153.347 19.6478 153.09 19.4682V22.6824C153.09 23.016 153.013 23.2598 152.859 23.4138C152.705 23.5678 152.442 23.6447 152.07 23.6447H150.28ZM154.457 17.4473C155.009 17.4473 155.419 17.242 155.689 16.8314C155.971 16.408 156.112 15.8434 156.112 15.1377C156.112 14.3036 155.945 13.7198 155.612 13.3862C155.291 13.0398 154.79 12.8665 154.11 12.8665C153.674 12.8665 153.328 12.9243 153.071 13.0398V16.1C153.071 16.5363 153.193 16.8699 153.437 17.1008C153.681 17.3318 154.021 17.4473 154.457 17.4473Z" fill="white"/>
<path fill-rule="evenodd" clip-rule="evenodd" d="M4.38998 4.50033C4.01476 2.49106 5.55649 0.634766 7.60049 0.634766C9.40427 0.634766 10.8665 2.09701 10.8665 3.90078V7.92728C11.3177 7.89544 11.7761 7.87911 12.2404 7.87911C12.6865 7.87911 13.1272 7.89418 13.5612 7.9236V3.90078C13.5612 2.09701 15.0234 0.634766 16.8272 0.634766C18.8712 0.634766 20.4129 2.49106 20.0377 4.50033L19.1539 9.23326C22.1872 10.5576 24.4809 12.8577 24.4809 15.748V17.4966C24.4809 19.8734 22.9085 21.8634 20.7102 23.2068C18.4948 24.5606 15.4978 25.3654 12.2404 25.3654C8.98304 25.3654 5.98604 24.5606 3.77065 23.2068C1.57242 21.8634 0 19.8734 0 17.4966V15.748C0 12.873 2.2701 10.5817 5.27785 9.25477L4.38998 4.50033ZM18.0212 9.85508L19.0555 4.3169C19.3159 2.92236 18.2459 1.63399 16.8272 1.63399C15.5753 1.63399 14.5604 2.64886 14.5604 3.90078V9.02479C14.2324 8.98273 13.8991 8.9494 13.5612 8.92524C13.128 8.89426 12.6873 8.87833 12.2404 8.87833C11.7753 8.87833 11.3168 8.89559 10.8665 8.92912C10.5286 8.95429 10.1953 8.98862 9.86729 9.03169V3.90078C9.86729 2.64886 8.85241 1.63399 7.60049 1.63399C6.18184 1.63399 5.11179 2.92235 5.37222 4.3169L6.40988 9.87345C3.16599 11.0784 0.999219 13.2586 0.999219 15.748V17.4966C0.999219 21.2906 6.03208 24.3662 12.2404 24.3662C18.4488 24.3662 23.4817 21.2906 23.4817 17.4966V15.748C23.4817 13.2458 21.2927 11.0562 18.0212 9.85508Z" fill="#633001"/>
<path d="M23.4815 17.4967C23.4815 21.2907 18.4486 24.3663 12.2402 24.3663C6.03189 24.3663 0.999023 21.2907 0.999023 17.4967V15.748H23.4815V17.4967Z" fill="#FEDC90"/>
<path fill-rule="evenodd" clip-rule="evenodd" d="M5.37202 4.31671C5.1116 2.92216 6.18164 1.63379 7.6003 1.63379C8.85222 1.63379 9.8671 2.64867 9.8671 3.90059V9.0315C10.6321 8.93102 11.4261 8.87813 12.2402 8.87813C13.0356 8.87813 13.8116 8.9286 14.5602 9.02459V3.90059C14.5602 2.64867 15.5751 1.63379 16.827 1.63379C18.2457 1.63379 19.3157 2.92216 19.0553 4.31671L18.021 9.85488C21.2925 11.056 23.4815 13.2457 23.4815 15.7478C23.4815 19.5418 18.4486 22.6174 12.2402 22.6174C6.03189 22.6174 0.999023 19.5418 0.999023 15.7478C0.999023 13.2584 3.16579 11.0782 6.40968 9.87326L5.37202 4.31671Z" fill="#D1884F"/>
<path d="M9.11817 15.2485C9.11817 16.2833 8.55896 17.1221 7.86914 17.1221C7.17932 17.1221 6.62012 16.2833 6.62012 15.2485C6.62012 14.2138 7.17932 13.375 7.86914 13.375C8.55896 13.375 9.11817 14.2138 9.11817 15.2485Z" fill="#633001"/>
<path d="M17.7363 15.2485C17.7363 16.2833 17.1771 17.1221 16.4873 17.1221C15.7975 17.1221 15.2383 16.2833 15.2383 15.2485C15.2383 14.2138 15.7975 13.375 16.4873 13.375C17.1771 13.375 17.7363 14.2138 17.7363 15.2485Z" fill="#633001"/>
</svg>
