<svg width="20" height="20" viewBox="0 0 20 20" fill="none" xmlns="http://www.w3.org/2000/svg">
<path d="M10 0C4.478 0 0 4.478 0 10C0 15.522 4.478 20 10 20C15.522 20 20 15.533 20 10C19.99 4.478 15.522 0 10 0ZM15.8 11.333C15.82 11.471 15.832 11.62 15.832 11.77C15.832 14.02 13.22 15.832 10 15.832C6.78 15.832 4.168 14.019 4.168 11.77C4.168 11.62 4.179 11.471 4.2 11.333C3.94186 11.2191 3.72264 11.0323 3.56931 10.7955C3.41598 10.5586 3.33523 10.2821 3.337 10C3.33767 9.71385 3.42224 9.43419 3.58024 9.19561C3.73824 8.95704 3.96273 8.77004 4.22593 8.65776C4.48912 8.54548 4.77947 8.51284 5.06103 8.5639C5.34258 8.61495 5.60298 8.74745 5.81 8.945C6.823 8.209 8.22 7.751 9.776 7.708C9.776 7.687 10.512 4.222 10.512 4.222C10.512 4.158 10.554 4.094 10.608 4.062C10.637 4.04157 10.6699 4.02723 10.7046 4.01984C10.7393 4.01245 10.7752 4.01217 10.81 4.019L13.23 4.542C13.4 4.2 13.753 3.955 14.158 3.955C14.2954 3.95434 14.4316 3.98092 14.5587 4.0332C14.6858 4.08548 14.8012 4.16243 14.8984 4.2596C14.9956 4.35677 15.0725 4.47223 15.1248 4.59931C15.1771 4.7264 15.2037 4.86258 15.203 5C15.2037 5.13742 15.1771 5.2736 15.1248 5.40069C15.0725 5.52777 14.9956 5.64323 14.8984 5.7404C14.8012 5.83757 14.6858 5.91452 14.5587 5.9668C14.4316 6.01908 14.2954 6.04566 14.158 6.045C13.8909 6.04522 13.6341 5.94207 13.4413 5.75715C13.2486 5.57223 13.1348 5.31989 13.124 5.053L10.949 4.584L10.288 7.708C11.823 7.761 13.198 8.23 14.19 8.945C14.3948 8.74382 14.6545 8.60775 14.9365 8.55394C15.2185 8.50013 15.51 8.531 15.7745 8.64264C16.039 8.75429 16.2645 8.94172 16.4226 9.18131C16.5807 9.42091 16.6643 9.70194 16.663 9.989C16.6628 10.2721 16.5813 10.5492 16.4284 10.7874C16.2754 11.0256 16.0573 11.215 15.8 11.333Z" fill="#B6ADCF"/>
</svg>
