<svg width="20" height="20" viewBox="0 0 20 20" fill="none" xmlns="http://www.w3.org/2000/svg">
<path d="M10 0C4.478 0 0 4.478 0 9.99C0 15.511 4.478 20 10 20C15.522 20 20 15.512 20 9.99C20 4.477 15.522 0 10 0ZM14.925 6.28C14.861 7.207 13.145 14.136 13.145 14.136C13.145 14.136 13.038 14.542 12.665 14.552C12.5744 14.5563 12.4839 14.5414 12.3995 14.5083C12.3151 14.4753 12.2386 14.4247 12.175 14.36C11.78 14.03 10.885 13.39 10.043 12.804C10.0098 12.8386 9.97403 12.8707 9.936 12.9C9.744 13.07 9.456 13.316 9.147 13.614C9.01987 13.7283 8.8955 13.8457 8.774 13.966L8.764 13.976C8.70304 14.0367 8.6386 14.0938 8.571 14.147C8.156 14.488 8.113 14.2 8.113 14.051L8.337 11.61V11.589L8.347 11.567C8.358 11.535 8.38 11.524 8.38 11.524C8.38 11.524 12.74 7.644 12.857 7.228C12.867 7.207 12.836 7.186 12.783 7.207C12.495 7.303 7.473 10.48 6.919 10.832C6.887 10.852 6.791 10.842 6.791 10.842L4.35 10.042C4.35 10.042 4.062 9.925 4.158 9.659C4.179 9.606 4.211 9.552 4.328 9.478C4.872 9.094 14.328 5.693 14.328 5.693C14.328 5.693 14.595 5.608 14.755 5.661C14.829 5.693 14.872 5.725 14.915 5.831C14.925 5.874 14.936 5.959 14.936 6.055C14.936 6.109 14.926 6.173 14.926 6.279L14.925 6.28Z" fill="#B6ADCF"/>
</svg>
