<svg width="18" height="16" viewBox="0 0 18 16" fill="none" xmlns="http://www.w3.org/2000/svg">
<path d="M5.65902 15.5C12.449 15.5 16.166 9.734 16.166 4.737C16.166 4.577 16.166 4.417 16.156 4.247C16.8824 3.70981 17.5069 3.04704 18 2.29C17.337 2.59 16.624 2.79 15.873 2.89C16.65 2.40746 17.2283 1.66241 17.503 0.79C16.79 1.23 16 1.54 15.151 1.71C14.8134 1.32968 14.399 1.02521 13.9352 0.816649C13.4713 0.608088 12.9686 0.500168 12.46 0.5C10.419 0.5 8.76002 2.199 8.76002 4.287C8.76002 4.587 8.79902 4.867 8.85802 5.147C5.79402 4.997 3.07202 3.478 1.24802 1.19C0.919544 1.77212 0.747939 2.4296 0.750023 3.098C0.750023 4.408 1.40402 5.567 2.39002 6.246C1.80394 6.22614 1.23135 6.06489 0.721023 5.776V5.826C0.721023 7.656 1.99902 9.194 3.67702 9.534C3.36502 9.624 3.04302 9.664 2.70102 9.664C2.46702 9.664 2.23302 9.644 2.00902 9.594C2.47702 11.103 3.84302 12.192 5.46202 12.222C4.16439 13.2713 2.54581 13.8432 0.877023 13.842C0.584023 13.842 0.282023 13.832 -0.000976562 13.792C1.67586 14.9073 3.64516 15.5016 5.65902 15.5Z" fill="#B6ADCF"/>
</svg>
